<svg width="1080" height="167" viewBox="0 0 1080 167" fill="none" xmlns="http://www.w3.org/2000/svg">
<g clip-path="url(#clip0_13_209)">
<path d="M1070.1 77.1C1066.9 73.9 1063.2 71.4 1059.2 69.8C1055.2 68.1 1050.9 67.3 1046.4 67.3C1037.4 67.3 1028.9 70.7 1022.6 77.1C1016.2 83.5 1012.8 91.9 1012.8 100.9V166.7H1030V100.9C1030 96.5 1031.7 92.4 1034.8 89.2C1037.8 86.2 1042 84.4 1046.5 84.4C1051 84.4 1055 86.1 1058.2 89.2C1061.2 92.2 1063 96.5 1063 100.9V166.7H1080.2V100.9C1080.2 91.9 1076.8 83.4 1070.4 77.1" fill="black"/>
<path d="M734.8 69.7C730.8 68 726.5 67.2 722 67.2C713 67.2 704.5 70.6 698.2 77C697.8 77.4 697.4 77.9 697 78.3C696.6 77.9 696.2 77.4 695.8 77C692.6 73.8 688.9 71.3 684.9 69.7C680.9 68 676.6 67.2 672.1 67.2C663.1 67.2 654.6 70.6 648.3 77C641.9 83.4 638.5 91.8 638.5 100.8V166.6H655.7V100.8C655.7 96.4 657.4 92.3 660.5 89.1C663.5 86.1 667.7 84.3 672.2 84.3C676.7 84.3 680.7 86 683.9 89.1C686.9 92.1 688.7 96.3 688.7 100.6V149.2H705.9V100.6C705.9 96.2 707.6 92.1 710.7 88.9C713.7 85.9 717.9 84.1 722.4 84.1C726.9 84.1 730.9 85.8 734.1 88.9C737.1 91.9 738.9 96.2 738.9 100.6V166.4H756.1V100.6C756.1 91.6 752.7 83.1 746.3 76.8C743.1 73.6 739.4 71.1 735.4 69.5" fill="black"/>
<path d="M364.1 69.7C360.1 68 355.8 67.2 351.3 67.2C342.3 67.2 333.8 70.6 327.5 77C327.1 77.4 326.7 77.9 326.3 78.3C325.9 77.9 325.5 77.4 325.1 77C321.9 73.8 318.2 71.3 314.2 69.7C310.2 68 305.9 67.2 301.4 67.2C292.4 67.2 283.9 70.6 277.6 77C271.2 83.4 267.8 91.8 267.8 100.8V133C267.8 142 271.2 150.5 277.6 156.8C284 163.2 292.4 166.6 301.4 166.6C310.4 166.6 310.3 165.7 314.2 164.1C318.2 162.4 321.9 160 325.1 156.8C331.5 150.4 334.9 142 334.9 133V100.8C334.9 96.4 336.6 92.3 339.7 89.1C342.7 86.1 346.9 84.3 351.4 84.3C355.9 84.3 359.9 86 363.1 89.1C366.1 92.1 367.9 96.4 367.9 100.8V166.6H385.1V100.8C385.1 91.8 381.7 83.3 375.3 77C372.1 73.8 368.4 71.3 364.4 69.7M312.8 144.6C309.8 147.6 305.6 149.4 301.1 149.4C296.6 149.4 292.6 147.7 289.4 144.6C286.4 141.6 284.6 137.4 284.6 132.9V100.7C284.6 96.3 286.3 92.2 289.4 89C292.4 86 296.6 84.2 301.1 84.2C305.6 84.2 309.6 85.9 312.8 89C315.8 92 317.6 96.2 317.6 100.5V132.7C317.6 137.1 315.9 141.2 312.8 144.4" fill="black"/>
<path d="M431.4 67.1C422.4 67.1 413.9 70.5 407.6 76.9C401.2 83.3 397.8 91.6 397.8 100.5V100.9H415V100.5C415 96.1 416.7 92.2 419.8 89.1C422.8 86.1 427.1 84.3 431.5 84.3C440.5 84.3 447.9 91.7 447.9 100.7V125.3C447.5 138.7 436.6 149.3 423.3 149.3C410 149.3 413.9 148 409.9 145.3L398.4 158.3C405.6 163.6 414.4 166.5 423.3 166.5C446.3 166.5 465.1 147.7 465.1 124.7V100.9C465.1 91.9 461.7 83.6 455.3 77.1C448.9 70.7 440.5 67.2 431.5 67.2" fill="black"/>
<path d="M898.9 69.7C894.9 68 890.6 67.2 886.1 67.2C877.1 67.2 868.6 70.6 862.3 77C861.9 77.4 861.5 77.9 861.1 78.3C860.7 77.9 860.3 77.4 859.9 77C856.7 73.8 853 71.3 849 69.7C844.9 68 840.7 67.2 836.2 67.2V84.4C840.6 84.4 844.7 86.1 847.9 89.2C850.9 92.2 852.7 96.4 852.7 100.7H869.9C869.9 96.2 871.6 92.1 874.7 88.9C877.7 85.9 881.9 84.1 886.4 84.1C890.9 84.1 894.9 85.8 898.1 88.9C901.1 91.9 902.9 96.2 902.9 100.6V125.2C902.5 138.6 891.6 149.2 878.3 149.2C865 149.2 868.9 147.9 864.9 145.2L853.4 158.2C860.6 163.5 869.4 166.4 878.3 166.4C901.3 166.4 920.1 147.6 920.1 124.6V100.6C920.1 91.6 916.7 83.1 910.3 76.8C907.1 73.6 903.4 71.1 899.4 69.5" fill="black"/>
<path d="M583.4 67.1C574.5 67.1 565.7 70 558.5 75.3L570 88.3C574 85.8 578.6 84.3 583.4 84.3C595.2 84.3 604.9 92.4 607.4 103.4C602.6 100.9 597.2 99.4 591.6 99.4C582.6 99.4 574.1 103 567.8 109.3C561.5 115.6 558 124.1 558 133C558 141.9 561.6 150.2 567.8 156.6C574.2 163 582.6 166.4 591.6 166.4C600.6 166.4 609.1 162.8 615.4 156.5C621.8 150.1 625.2 141.7 625.2 132.8V108.8C625.2 85.8 606.4 67 583.4 67M608.1 132.9C608.1 141.9 600.7 149.3 591.7 149.3C582.7 149.3 583.2 147.6 580 144.5C577 141.5 575.2 137.5 575.2 133.1C575.2 124.1 582.6 116.7 591.6 116.7C600.6 116.7 600.1 118.4 603.3 121.5C606.3 124.5 608.1 128.5 608.1 132.9Z" fill="black"/>
<path d="M957.8 67.1C948.9 67.1 940.1 70 932.9 75.3L944.4 88.3C948.4 85.8 953 84.3 957.8 84.3C969.6 84.3 979.3 92.4 981.8 103.4C977 100.9 971.6 99.4 966 99.4C957 99.4 948.5 103 942.2 109.3C935.8 115.7 932.4 124.1 932.4 133C932.4 141.9 936 150.2 942.2 156.6C948.6 163 957 166.4 966 166.4C975 166.4 983.5 162.8 989.8 156.5C996.2 150.1 999.6 141.7 999.6 132.8V108.8C999.6 85.8 980.8 67 957.8 67M982.5 132.9C982.5 141.9 975.1 149.3 966.1 149.3C957.1 149.3 957.6 147.6 954.4 144.5C951.4 141.5 949.6 137.5 949.6 133.1C949.6 124.1 957 116.7 966 116.7C975 116.7 974.5 118.4 977.7 121.5C980.7 124.5 982.5 128.5 982.5 132.9Z" fill="black"/>
<path d="M511.5 99.4C505.9 99.4 500.5 100.7 495.7 103.4C498.2 92.4 508 84.3 519.7 84.3H528V67.1H519.7C496.7 67.1 477.9 85.9 477.9 108.9V132.7V166.3H495.1V132.7C495.1 128.3 496.8 124.4 499.9 121.3C502.9 118.3 507.2 116.5 511.6 116.5C520.6 116.5 528 123.9 528 132.9V166.3H545.2V132.9C545.2 123.9 541.8 115.6 535.4 109.1C529 102.7 520.6 99.2 511.6 99.2" fill="black"/>
<path d="M802.1 99.4C796.5 99.4 791.1 100.7 786.3 103.4C788.8 92.4 798.6 84.3 810.3 84.3H818.6V67.1H810.3C787.3 67.1 768.5 85.9 768.5 108.9V166.5H785.7V132.9C785.7 128.5 787.4 124.6 790.5 121.5C793.6 118.4 797.8 116.7 802.2 116.7C811.2 116.7 818.6 124.1 818.6 133.1V166.5H835.8V133.1C835.8 124.1 832.4 115.8 826 109.3C819.6 102.9 811.2 99.4 802.2 99.4" fill="black"/>
<path d="M166.7 89.8V166.6H119C104 166.6 90.5 156.8 86.6 142.5C76 104.6 41.3 76.8 0 76.8V0H47.7C62.7 0 76 9.8 80.1 24.1C84.3 39.2 92.4 52.7 103.1 63.4C119.4 79.7 141.9 89.8 166.7 89.8Z" fill="#FDCE36"/>
<path d="M234 0V67.1C196.9 67.1 166.8 37.1 166.8 0H233.9H234Z" fill="black"/>
</g>
<defs>
<clipPath id="clip0_13_209">
<rect width="1080" height="166.6" fill="white"/>
</clipPath>
</defs>
</svg>
